<?xml version="1.0" encoding="utf-8"?>
<!-- Generator: Adobe Illustrator 19.2.1, SVG Export Plug-In . SVG Version: 6.00 Build 0)  -->
<svg version="1.1" xmlns="http://www.w3.org/2000/svg" xmlns:xlink="http://www.w3.org/1999/xlink" x="0px" y="0px"
	 viewBox="0 0 2053.8 2065.2" style="enable-background:new 0 0 2053.8 2065.2;" xml:space="preserve">
<style type="text/css">
	.st0{display:none;fill-rule:evenodd;clip-rule:evenodd;fill:#FFFFFF;stroke:#000000;stroke-miterlimit:10;}
	.st1{fill-rule:evenodd;clip-rule:evenodd;fill:#FFFFFF;stroke:#000000;stroke-miterlimit:10;}
	.st2{fill:#FFFFFF;}
</style>
<g id="Layer_1">
	<rect id="Forma_1_copy" x="-3.2" y="-3" class="st0" width="1036" height="1036"/>
	<rect id="Forma_1_copy_2" x="1032.8" y="-3" class="st0" width="1036" height="1036"/>
	<rect id="Forma_1_copy_3" x="-3.2" y="-3" class="st0" width="1036" height="1036"/>
	<rect id="Forma_1_copy_5" x="-3.2" y="1033" class="st0" width="1036" height="1036"/>
	<rect id="Forma_1_copy_6" x="-3.2" y="1033" class="st0" width="518" height="518"/>
	<rect id="Forma_1_copy_7" x="-3.2" y="-3" class="st0" width="518" height="518"/>
	<rect id="Forma_1_copy_8" x="514.8" y="515" class="st0" width="518" height="518"/>
	<rect id="Forma_1_copy_9" x="1032.8" y="1551" class="st0" width="518" height="518"/>
	<rect id="Forma_1_copy_10" x="1550.8" y="1033" class="st0" width="518" height="518"/>
	<rect id="Forma_1_copy_11" x="1032.8" y="515" class="st0" width="518" height="518"/>
	<rect id="Forma_1_copy_12" x="1550.8" y="-3" class="st0" width="518" height="518"/>
</g>
<g id="Carpeta_1">
	<path id="Forma_2" class="st1" d="M921.8,1384.5"/>
	<g>
		<path class="st2" d="M775.3,1716.5c-26.8,0-48.5,19.9-48.5,44.5s21.7,44.5,48.5,44.5s48.5-19.9,48.5-44.5
			S802.1,1716.5,775.3,1716.5z"/>
		<path class="st2" d="M1241.3,1719.5c-26.8,0-48.5,19.9-48.5,44.5s21.7,44.5,48.5,44.5s48.5-19.9,48.5-44.5
			S1268.1,1719.5,1241.3,1719.5z"/>
		<path class="st2" d="M2053.3,515c0,0-15.5-515-311.5-515c-453.4,0-490,876.3-492.1,1095.3c-57.9-24.9-126.8-36.6-217.9-34.8
			c-91.9,1.8-167.6,20.7-230.1,51C693.8,959.4,483.2,731,249.8,844c-248,120-248,706-248,706s-39.2,536.7,252,514.5
			c216-16.5,128-560.5,128-560.5s-76-551,232-335.5c20.5,14.4,39.7,27.8,57.5,40.3C483.7,1413.1,513.8,1756,513.8,1756
			s128.4,284.2,471,300c-0.6-1.1-1-2.5-1-4c0-12.4,27.7-34.7,48.5-34.5c20.3,0.2,48.5,22.1,48.5,34.5c0,0.4,0,0.9-0.1,1.3
			c150.5-16,267.2-85.5,346.6-151.4c-0.6-44.6,11.2-84.4,34.2-115.2c20.8-27.8,49.6-46.9,81.1-53.5c3.8-0.8,7.6-1.4,11.4-1.8
			c7.4-102.8,6.4-378.1-187.9-558.2c10.4-94,40.5-324,99.7-477.2c76-196.5,256-284,256-284s1.5,411.6,220.5,405.6
			C2068.5,814.2,2053.3,515,2053.3,515z M790.8,1925.1c-62.5,0-112.9-55.5-112.9-124.2c0-68.7,50.5-124.2,112.9-124.2
			s112.9,55.5,112.9,124.2C903.7,1869.6,853.2,1925.1,790.8,1925.1z M1375.7,1800.9c0,68.7-50.5,124.2-112.9,124.2
			s-112.9-55.5-112.9-124.2c0-68.7,50.5-124.2,112.9-124.2S1375.7,1732.3,1375.7,1800.9z"/>
		<path class="st2" d="M1547.4,1755.7c-49.9,10.6-99.3,60.6-97.1,148.5l0,1.5l-0.3,1.4c-0.2,0.9-9.8,44.1,13.6,78.7
			c15.7,23.1,42.9,37.7,80.9,43.3c35.4,5.2,62.7-4.2,81.2-27.9c16.9-21.7,26.4-55.7,26.8-95.8c0.3-37-7.1-76.6-20.3-108.5
			C1615.5,1756.8,1577.5,1749.3,1547.4,1755.7z"/>
	</g>
</g>
</svg>
